<?xml version="1.0" encoding="utf-8"?>
<!-- Generator: Adobe Illustrator 20.1.0, SVG Export Plug-In . SVG Version: 6.00 Build 0)  -->
<svg version="1.1" id="Layer_1" xmlns="http://www.w3.org/2000/svg" xmlns:xlink="http://www.w3.org/1999/xlink" x="0px" y="0px"
	 viewBox="0 0 32 32" style="enable-background:new 0 0 32 32;" xml:space="preserve">
<style type="text/css">
	.st0{fill:#EBEBEB;}
</style>
<path class="st0" d="M30.5,6.4c-0.7,0.3-1.4,0.5-2.1,0.7c0.8-0.7,1.4-1.7,1.7-2.7l0,0c0.1-0.3-0.2-0.6-0.5-0.4l0,0
	c-1,0.6-2.1,1-3.2,1.3c-0.1,0-0.1,0-0.2,0c-0.2,0-0.4-0.1-0.6-0.2c-1.2-1-2.7-1.6-4.3-1.6c-0.7,0-1.4,0.1-2,0.3
	c-2.1,0.7-3.7,2.4-4.2,4.5C15,9.2,15,10,15,10.7c0,0.1,0,0.2-0.1,0.2c0,0.1-0.1,0.1-0.2,0.1c0,0,0,0,0,0c-4.6-0.4-8.7-2.6-11.7-6.2
	l0,0C3,4.6,2.7,4.6,2.6,4.8l0,0C2,5.8,1.7,6.9,1.7,8.1c0,1.8,0.7,3.4,1.9,4.6c-0.5-0.1-1-0.3-1.5-0.6l0,0c-0.2-0.1-0.5,0-0.5,0.3
	l0,0c0,2.6,1.5,4.9,3.8,6c0,0-0.1,0-0.1,0c-0.4,0-0.7,0-1.1-0.1l0,0c-0.3,0-0.5,0.2-0.4,0.4l0,0c0.7,2.3,2.7,4,5.1,4.4
	c-2,1.3-4.3,2-6.7,2l-0.7,0c-0.2,0-0.4,0.2-0.5,0.4c-0.1,0.2,0,0.5,0.2,0.6c2.7,1.6,5.8,2.4,8.9,2.4c2.7,0,5.3-0.5,7.6-1.6
	c2.1-1,4-2.4,5.6-4.2c1.5-1.7,2.6-3.6,3.4-5.7c0.8-2,1.2-4.2,1.2-6.3v-0.1c0-0.3,0.2-0.6,0.4-0.9c1-0.8,1.9-1.8,2.6-2.8l0,0
	C31.1,6.6,30.8,6.3,30.5,6.4L30.5,6.4z"/>
</svg>
